<svg xmlns="http://www.w3.org/2000/svg" id="Camada_1" data-name="Camada 1" viewBox="0 0 435.48 192.16"><defs><style>.cls-1{fill:#6d36fb;}</style></defs><path class="cls-1" d="M226.33,53.87a52.52,52.52,0,1,0,0,105,51.84,51.84,0,0,0,10.18-1v0l42.29-7.56s.05-43.29.05-44A52.58,52.58,0,0,0,226.33,53.87Zm26.48,76-21.35,3.81h0a26.48,26.48,0,1,1,21.35-26Z"></path><polygon class="cls-1" points="289.23 51.1 289.23 94.72 289.23 104.06 289.23 148.52 316.86 143.66 316.86 104.06 316.86 94.72 316.86 46.22 289.23 51.1"></polygon><path class="cls-1" d="M166.17,63.61a54.46,54.46,0,0,0-50.34,54.22V179.1l27.77-4.88V117.83a27,27,0,0,1,22.57-26.29Z"></path><path class="cls-1" d="M54.14,83.87a54.41,54.41,0,0,0-7.7.56h0l-.2,0c-1.15.17-2.29.37-3.42.61L27.64,87.82V48.34L0,53.23V138A54.15,54.15,0,1,0,54.14,83.87Zm0,80.71A26.59,26.59,0,0,1,27.59,138q0-.53,0-1.05l0-21.19L49.05,112h0a26.56,26.56,0,1,1,5,52.62Z"></path><path class="cls-1" d="M381.34,26.25c-29.83,0-54.1,23.85-54.1,55.62V176l28.08-5.09v-31s15.9-2.76,26-4.56c35.92-6.38,54.93-27.4,54.12-57.23C434.57,45.56,406.6,26.25,381.34,26.25Zm26.55,53.89C407.07,98,395,104.64,380.62,107.3c-14.25,2.63-25.3,4.33-25.3,4.33V79.78c0-14,11.36-25.34,25.3-25.89C395.42,53.31,408.59,64.69,407.89,80.14Z"></path><circle class="cls-1" cx="303.04" cy="17.19" r="17.19" transform="translate(171.2 290.59) rotate(-67.5)"></circle></svg>